<svg version="1.2" xmlns="http://www.w3.org/2000/svg" viewBox="0 0 2000 2000" width="2000" height="2000">
	<style>
		.s0 { fill: #cacaca } 
	</style>
	<g id="Layer 1">
		<path id="e." class="s0" aria-label="e."  d="m256.1 1064.4q0-133.3 44.4-246.9 46.9-113.6 128.4-195.1 81.5-83.9 192.6-128.4 113.6-46.9 246.9-46.9 133.4 0 244.5 46.9 113.5 44.5 195 128.4 81.5 81.5 126 195.1 46.9 113.6 46.9 246.9 0 17.3-2.5 34.6 0 14.8-4.9 39.5h-940.8q22.2 125.9 108.7 200 88.9 71.6 227.1 71.6 93.9 0 165.5-34.6 74-34.6 118.5-101.2h296.3q-29.7 93.8-84 170.4-54.3 74-130.8 128.3-74.1 51.9-167.9 81.5-91.4 27.2-197.6 27.2-133.3 0-246.9-44.5-111.1-46.9-192.6-128.3-81.5-81.5-128.4-195.1-44.4-113.6-44.4-249.4zm288.9-123.5h646.9q-34.6-103.7-118.5-162.9-84-59.3-205-59.3-123.4 0-207.4 59.3-83.9 59.2-116 162.9zm1120.6 395.1q74.1 0 123.5 49.4 49.3 49.4 49.3 123.5 0 74-49.3 123.4-49.4 49.4-123.5 49.4-74.1 0-123.5-49.4-49.3-49.4-49.3-123.4 0-74.1 49.3-123.5 49.4-49.4 123.5-49.4z"/>
	</g>
</svg>