<svg version="1.2" xmlns="http://www.w3.org/2000/svg" viewBox="0 0 2000 2000" width="2000" height="2000">
	<style>
		.s0 { fill: #cacaca } 
	</style>
	<g id="Layer 1">
		<path id="echo." class="s0" aria-label="echo."  d="m217.9 1155.4q0-41.3 13.8-76.5 14.5-35.1 39.8-60.4 25.2-26 59.6-39.7 35.2-14.6 76.5-14.6 41.3 0 75.8 14.6 35.1 13.7 60.4 39.7 25.2 25.3 39 60.4 14.5 35.2 14.5 76.5 0 5.4-0.7 10.7 0 4.6-1.6 12.3h-291.4q6.9 39 33.7 61.9 27.5 22.2 70.3 22.2 29.1 0 51.3-10.7 22.9-10.7 36.7-31.4h91.8q-9.2 29.1-26 52.8-16.9 23-40.6 39.8-22.9 16.1-52 25.2-28.3 8.4-61.2 8.4-41.3 0-76.5-13.7-34.4-14.6-59.6-39.8-25.3-25.2-39.8-60.4-13.8-35.2-13.8-77.3zm89.5-38.2h200.4q-10.7-32.1-36.7-50.5-26-18.3-63.5-18.3-38.2 0-64.2 18.3-26 18.4-36 50.5zm488.8-68.8q-23 0-42.9 8.4-19.1 7.6-33.6 22.1-13.8 14.6-22.2 34.5-8.4 19.1-8.4 42 0 23 8.4 42.9 8.4 19.1 22.2 33.6 14.5 13.8 33.6 22.2 19.9 8.4 42.9 8.4 34.4 0 60.4-17.6 26.8-17.6 38.2-47.4h88q-6.9 32.9-24.5 60.4-16.8 27.6-41.3 47.4-24.5 19.2-55.8 30.6-30.6 10.7-65 10.7-39.8 0-75-14.5-35.2-15.3-61.2-40.5-25.2-26-40.5-61.2-14.6-35.2-14.6-75 0-40.5 14.6-74.9 15.3-35.2 40.5-61.2 26-26 61.2-40.5 35.2-14.6 75-14.6 34.4 0 65 11.5 31.3 10.7 55.8 30.6 24.5 19.1 41.3 46.6 17.6 27.6 24.5 60.5h-88q-11.4-29.9-38.2-47.5-26-17.5-60.4-17.5zm210-221.9h84.2v171.4q19.9-16.1 45.1-24.5 25.2-9.2 54.3-9.2 35.2 0 64.3 13 29.8 12.3 50.4 35.2 21.5 22.2 32.9 53.5 12.3 31.4 12.3 68.1v205h-84.2v-205q0-39-23.7-61.9-23.7-23.7-63.5-23.7-39.7 0-64.2 23.7-23.7 22.9-23.7 61.9v205h-84.2zm366.7 328.9q0-40.5 14.6-75 15.3-35.2 40.5-61.2 26-26 61.2-40.5 35.2-14.5 75-14.5 40.5 0 74.9 14.5 35.2 14.5 61.2 40.5 26 26 40.5 61.2 14.6 34.5 14.6 75 0 39.8-14.6 74.9-14.5 35.2-40.5 61.2-26 25.3-61.2 40.6-34.4 14.5-74.9 14.5-39.8 0-75-14.5-35.2-15.3-61.2-40.6-25.2-26-40.5-61.2-14.6-35.1-14.6-74.9zm84.2 0q0 22.9 8.4 42.8 8.4 19.1 22.2 33.7 14.5 13.7 33.6 22.2 19.9 8.4 42.9 8.4 22.9 0 42-8.4 19.9-8.5 34.4-22.2 14.6-14.6 22.2-33.7 8.4-19.9 8.4-42.8 0-23-8.4-42.1-7.6-19.9-22.2-34.4-14.5-14.5-34.4-22.2-19.1-8.4-42-8.4-23 0-42.9 8.4-19.1 7.7-33.6 22.2-13.8 14.5-22.2 34.4-8.4 19.1-8.4 42.1zm355 84.1q23 0 38.3 15.3 15.3 15.3 15.3 38.3 0 22.9-15.3 38.2-15.3 15.3-38.3 15.3-22.9 0-38.2-15.3-15.3-15.3-15.3-38.2 0-23 15.3-38.3 15.3-15.3 38.2-15.3z"/>
	</g>
</svg>